<svg xmlns="http://www.w3.org/2000/svg" width="74" height="85" fill="none">
	<style>
        @media (prefers-color-scheme: light) {
            svg{
				background-color:oklch(18% 0.021 253.72);
			}
        }
    </style>
	<path fill="url(#a)" d="M66.5 8.6c-4.3 0-7.8 3.5-7.8 7.8 0 1.5.4 2.9 1.2 4.1L50 28.3a13.81 13.81 0 0 0-19.8-.8L15.4 13.8c1.1-1.5 1.8-3.2 1.8-5.2 0-4.8-3.9-8.6-8.6-8.6C3.9 0 0 3.9 0 8.6c0 4.7 3.9 8.6 8.6 8.6 2.2 0 4.2-.8 5.7-2.2L29 28.7c-2 2.4-3.1 5.4-3.1 8.8 0 4.9 2.5 9.1 6.3 11.6l-8.9 15.7c-1.3-.6-2.8-1-4.3-1a10.4 10.4 0 1 0 0 20.8c5.8 0 10.3-4.6 10.3-10.3 0-3.6-1.8-6.7-4.5-8.6L33.7 50a13.84 13.84 0 0 0 13.8-1l7.3 9.3a5.16 5.16 0 0 0 3.8 8.7c2.9 0 5.2-2.3 5.2-5.2 0-2.9-2.3-5.2-5.2-5.2-.9 0-1.7.2-2.5.6l-7.4-9.4a13.81 13.81 0 0 0 2.1-18.2l9.9-7.8c1.4 1.4 3.4 2.3 5.5 2.3 4.3 0 7.8-3.5 7.8-7.8s-3.2-7.7-7.5-7.7Z"/>
	<defs>
		<linearGradient id="a" x1="0" x2="74" y1="0" y2="0" gradientUnits="userSpaceOnUse">
			<stop stop-color="#FFB147"/>
			<stop offset="1" stop-color="#B86ADF"/>
		</linearGradient>
	</defs>
</svg>