<svg width="74" height="85" viewBox="0 0 74 85" fill="none" xmlns="http://www.w3.org/2000/svg">
<path d="M66.5 8.6C62.2 8.6 58.7 12.1 58.7 16.4C58.7 17.9 59.1 19.3 59.9 20.5L50 28.3C47.5 25.5 43.8 23.7 39.7 23.7C36 23.7 32.7 25.2 30.2 27.5L15.4 13.8C16.5 12.3 17.2 10.6 17.2 8.6C17.2 3.8 13.3 0 8.6 0C3.9 0 0 3.9 0 8.6C0 13.3 3.9 17.2 8.6 17.2C10.8 17.2 12.8 16.4 14.3 15L29 28.7C27 31.1 25.9 34.1 25.9 37.5C25.9 42.4 28.4 46.6 32.2 49.1L23.3 64.8C22 64.2 20.5 63.8 19 63.8C13.3 63.8 8.6 68.4 8.6 74.2C8.6 79.9 13.2 84.6 19 84.6C24.8 84.6 29.3 80 29.3 74.3C29.3 70.7 27.5 67.6 24.8 65.7L33.7 50C35.5 50.9 37.6 51.4 39.7 51.4C42.6 51.4 45.3 50.5 47.5 49L54.8 58.3C54 59.2 53.4 60.4 53.4 61.8C53.4 64.7 55.7 67 58.6 67C61.5 67 63.8 64.7 63.8 61.8C63.8 58.9 61.5 56.6 58.6 56.6C57.7 56.6 56.9 56.8 56.1 57.2L48.7 47.8C51.5 45.3 53.3 41.6 53.3 37.5C53.3 34.6 52.4 31.9 50.8 29.6L60.7 21.8C62.1 23.2 64.1 24.1 66.2 24.1C70.5 24.1 74 20.6 74 16.3C74 12 70.8 8.6 66.5 8.6Z" fill="url(#paint0_linear_8_77)"/>
<defs>
<linearGradient id="paint0_linear_8_77" x1="0" y1="0" x2="74" y2="0" gradientUnits="userSpaceOnUse">
<stop stop-color="#FFB147"/>
<stop offset="1" stop-color="#B86ADF"/>
</linearGradient>
</defs>
</svg>
