<?xml version="1.0" encoding="UTF-8"?>
<svg class="logo" viewBox="0 0 100 100" xmlns="http://www.w3.org/2000/svg">

<defs>
<linearGradient id="bg">
<stop stop-color="#00ff8f" offset="0"/>
<stop stop-color="#00a1ff" offset="1"/>
</linearGradient>
</defs>

<g fill="url(#bg)">
    <path d="m79.4 16.3c-4.3 0-7.8 3.5-7.8 7.8 0 1.5 0.4 2.9 1.2 4.1l-9.9 7.8c-2.5-2.8-6.2-4.6-10.3-4.6-3.7 0-7 1.5-9.5 3.8l-14.8-13.7c1.1-1.5 1.8-3.2 1.8-5.2 0-4.8-3.9-8.6-8.6-8.6s-8.6 3.9-8.6 8.6 3.9 8.6 8.6 8.6c2.2 0 4.2-0.8 5.7-2.2l14.7 13.7c-2 2.4-3.1 5.4-3.1 8.8 0 4.9 2.5 9.1 6.3 11.6l-8.9 15.7c-1.3-0.6-2.8-1-4.3-1-5.7 0-10.4 4.6-10.4 10.4 0 5.7 4.6 10.4 10.4 10.4s10.3-4.6 10.3-10.3c0-3.6-1.8-6.7-4.5-8.6l8.9-15.7c1.8 0.9 3.9 1.4 6 1.4 2.9 0 5.6-0.9 7.8-2.4l7.3 9.3c-0.8 0.9-1.4 2.1-1.4 3.5 0 2.9 2.3 5.2 5.2 5.2s5.2-2.3 5.2-5.2-2.3-5.2-5.2-5.2c-0.9 0-1.7 0.2-2.5 0.6l-7.4-9.4c2.8-2.5 4.6-6.2 4.6-10.3 0-2.9-0.9-5.6-2.5-7.9l9.9-7.8c1.4 1.4 3.4 2.3 5.5 2.3 4.3 0 7.8-3.5 7.8-7.8s-3.2-7.7-7.5-7.7z" xmlns="http://www.w3.org/2000/svg"/>
</g>
</svg>
